<svg width="150" height="24" viewBox="0 0 150 24" fill="none" xmlns="http://www.w3.org/2000/svg">
<g clip-path="url(#clip0_2473_649)">
<path d="M59.0868 23.3374C57.9973 23.3374 57.0136 23.1218 56.1339 22.6925C55.2542 22.2633 54.5574 21.6877 54.0454 20.9639C53.5314 20.2421 53.2754 19.4298 53.2754 18.5289C53.2754 17.0621 53.8663 15.8956 55.0502 15.0255C56.234 14.1574 57.799 13.5761 59.747 13.2816L64.0512 12.654V11.9938C64.0512 11.1141 63.8317 10.4346 63.3909 9.95143C62.9501 9.4702 62.1975 9.22958 61.1291 9.22958C60.3745 9.22958 59.7624 9.38165 59.2908 9.68579C58.8192 9.98993 58.4689 10.3922 58.2379 10.8946C58.0704 11.168 57.8298 11.3027 57.516 11.3027H55.0348C54.8038 11.3027 54.6305 11.2392 54.517 11.1141C54.4015 10.989 54.3437 10.8215 54.3437 10.6117C54.3649 10.2767 54.5016 9.86866 54.7518 9.3855C55.004 8.90427 55.4005 8.43844 55.9453 7.988C56.49 7.53757 57.1907 7.15451 58.0512 6.84075C58.9097 6.52698 59.9472 6.36914 61.1618 6.36914C62.4823 6.36914 63.5969 6.53083 64.5074 6.85615C65.4179 7.18146 66.1455 7.61649 66.6903 8.15932C67.235 8.70408 67.6335 9.34315 67.8837 10.0766C68.1359 10.8099 68.261 11.5838 68.261 12.4019V22.2671C68.261 22.4769 68.1879 22.654 68.0416 22.8003C67.8953 22.9466 67.7162 23.0198 67.5084 23.0198H64.9636C64.7326 23.0198 64.5497 22.9466 64.4131 22.8003C64.2764 22.654 64.209 22.475 64.209 22.2671V21.0409C63.9357 21.4394 63.5699 21.8109 63.1099 22.1555C62.6498 22.5 62.0897 22.783 61.4294 23.0044C60.7692 23.2257 59.9896 23.3335 59.0887 23.3335L59.0868 23.3374ZM60.1551 20.3518C60.8885 20.3518 61.5526 20.194 62.1493 19.8802C62.7461 19.5664 63.2177 19.0794 63.5642 18.4192C63.9087 17.7589 64.082 16.9274 64.082 15.9206V15.2604L60.9405 15.7628C59.7047 15.9514 58.7826 16.2556 58.1763 16.6733C57.568 17.0929 57.2658 17.6049 57.2658 18.2132C57.2658 18.6733 57.4063 19.066 57.6893 19.3913C57.9722 19.7166 58.3341 19.9572 58.773 20.1131C59.2138 20.271 59.6739 20.348 60.1551 20.348V20.3518Z" fill="#443087"/>
<path d="M70.1706 23.3373C69.9608 23.3373 69.7837 23.2642 69.6374 23.1179C69.4911 22.9716 69.418 22.7926 69.418 22.5847V1.7839C69.418 1.57408 69.4911 1.39699 69.6374 1.25069C69.7837 1.1044 69.9627 1.03125 70.1706 1.03125H72.9675C73.1985 1.03125 73.3814 1.1044 73.5181 1.25069C73.6547 1.39699 73.7221 1.576 73.7221 1.7839V8.94655C74.288 8.27668 74.9791 7.73192 75.7953 7.31229C76.6114 6.89266 77.6182 6.68476 78.8116 6.68476C80.0879 6.68476 81.2043 6.9735 82.1572 7.54906C83.11 8.12461 83.8492 8.93693 84.3728 9.98409C84.8964 11.0312 85.1582 12.2882 85.1582 13.755V22.5847C85.1582 22.7945 85.085 22.9716 84.9387 23.1179C84.7924 23.2642 84.6134 23.3373 84.4036 23.3373H81.5759C81.366 23.3373 81.187 23.2642 81.0407 23.1179C80.8944 22.9716 80.8213 22.7926 80.8213 22.5847V13.9437C80.8213 12.729 80.5229 11.7762 79.9262 11.0851C79.3295 10.3941 78.4652 10.0476 77.3352 10.0476C76.2053 10.0476 75.3718 10.3941 74.7115 11.0851C74.0513 11.7762 73.7221 12.729 73.7221 13.9437V22.5847C73.7221 22.7945 73.6547 22.9716 73.5181 23.1179C73.3814 23.2642 73.1985 23.3373 72.9675 23.3373H70.1706Z" fill="#443087"/>
<path d="M91.8153 23.3374C90.7258 23.3374 89.7421 23.1218 88.8624 22.6925C87.9827 22.2633 87.2859 21.6877 86.7739 20.9639C86.2599 20.2421 86.0039 19.4298 86.0039 18.5289C86.0039 17.0621 86.5949 15.8956 87.7787 15.0255C88.9625 14.1574 90.5275 13.5761 92.4755 13.2816L96.7797 12.654V11.9938C96.7797 11.1141 96.5602 10.4346 96.1194 9.95143C95.6786 9.4702 94.926 9.22958 93.8576 9.22958C93.1031 9.22958 92.4909 9.38165 92.0193 9.68579C91.5477 9.98993 91.1974 10.3922 90.9664 10.8946C90.7989 11.168 90.5583 11.3027 90.2445 11.3027H87.7633C87.5323 11.3027 87.3591 11.2392 87.2455 11.1141C87.1319 10.989 87.0722 10.8215 87.0722 10.6117C87.0934 10.2767 87.2301 9.86866 87.4803 9.3855C87.7325 8.90427 88.129 8.43844 88.6738 7.988C89.2185 7.53757 89.9192 7.15451 90.7797 6.84075C91.6382 6.52698 92.6757 6.36914 93.8904 6.36914C95.2109 6.36914 96.3254 6.53083 97.2359 6.85615C98.1464 7.18146 98.874 7.61649 99.4188 8.15932C99.9635 8.70408 100.362 9.34315 100.612 10.0766C100.864 10.8099 100.99 11.5838 100.99 12.4019V22.2671C100.99 22.4769 100.916 22.654 100.77 22.8003C100.624 22.9466 100.445 23.0198 100.237 23.0198H97.6921C97.4611 23.0198 97.2782 22.9466 97.1416 22.8003C97.0049 22.654 96.9375 22.475 96.9375 22.2671V21.0409C96.6642 21.4394 96.2985 21.8109 95.8384 22.1555C95.3783 22.5 94.8182 22.783 94.1579 23.0044C93.4977 23.2257 92.7181 23.3335 91.8172 23.3335L91.8153 23.3374ZM92.8836 20.3518C93.617 20.3518 94.2811 20.194 94.8798 19.8802C95.4784 19.5664 95.9481 19.0794 96.2946 18.4192C96.6392 17.7589 96.8124 16.9274 96.8124 15.9206V15.2604L93.6709 15.7628C92.4351 15.9514 91.5131 16.2556 90.9067 16.6733C90.2984 17.0929 89.9962 17.6049 89.9962 18.2132C89.9962 18.6733 90.1367 19.066 90.4197 19.3913C90.7027 19.7166 91.0646 19.9572 91.5034 20.1131C91.9442 20.271 92.4043 20.348 92.8855 20.348L92.8836 20.3518Z" fill="#443087"/>
<path d="M107.677 23.3374C106.587 23.3374 105.603 23.1218 104.724 22.6925C103.844 22.2633 103.147 21.6877 102.635 20.9639C102.121 20.2421 101.865 19.4298 101.865 18.5289C101.865 17.0621 102.456 15.8956 103.64 15.0255C104.824 14.1574 106.389 13.5761 108.337 13.2816L112.641 12.654V11.9938C112.641 11.1141 112.422 10.4346 111.981 9.95143C111.54 9.4702 110.787 9.22958 109.719 9.22958C108.964 9.22958 108.352 9.38165 107.881 9.68579C107.409 9.98993 107.059 10.3922 106.828 10.8946C106.66 11.168 106.42 11.3027 106.106 11.3027H103.625C103.394 11.3027 103.22 11.2392 103.107 11.1141C102.993 10.989 102.934 10.8215 102.934 10.6117C102.955 10.2767 103.091 9.86866 103.342 9.3855C103.594 8.90427 103.99 8.43844 104.535 7.988C105.08 7.53757 105.781 7.15451 106.641 6.84075C107.5 6.52698 108.537 6.36914 109.752 6.36914C111.072 6.36914 112.187 6.53083 113.097 6.85615C114.008 7.18146 114.735 7.61649 115.28 8.15932C115.825 8.70408 116.223 9.34315 116.474 10.0766C116.726 10.8099 116.851 11.5838 116.851 12.4019V22.2671C116.851 22.4769 116.778 22.654 116.631 22.8003C116.485 22.9466 116.306 23.0198 116.098 23.0198H113.553C113.322 23.0198 113.14 22.9466 113.003 22.8003C112.866 22.654 112.799 22.475 112.799 22.2671V21.0409C112.526 21.4394 112.16 21.8109 111.7 22.1555C111.24 22.5 110.68 22.783 110.019 23.0044C109.359 23.2257 108.579 23.3335 107.679 23.3335L107.677 23.3374ZM108.745 20.3518C109.478 20.3518 110.142 20.194 110.741 19.8802C111.34 19.5664 111.809 19.0794 112.156 18.4192C112.5 17.7589 112.674 16.9274 112.674 15.9206V15.2604L109.532 15.7628C108.296 15.9514 107.374 16.2556 106.768 16.6733C106.16 17.0929 105.858 17.6049 105.858 18.2132C105.858 18.6733 105.998 19.066 106.281 19.3913C106.564 19.7166 106.926 19.9572 107.365 20.1131C107.806 20.271 108.266 20.348 108.747 20.348L108.745 20.3518Z" fill="#443087"/>
<path d="M118.678 23.3381C118.469 23.3381 118.29 23.2649 118.143 23.1187C117.997 22.9724 117.924 22.7933 117.924 22.5855V7.75388C117.924 7.54406 117.997 7.36697 118.143 7.22068C118.29 7.07438 118.469 7.00123 118.678 7.00123H121.254C121.464 7.00123 121.641 7.07438 121.789 7.22068C121.935 7.36697 122.009 7.54599 122.009 7.75388V9.04166C122.553 8.37178 123.25 7.81163 124.097 7.3612C124.946 6.91076 125.999 6.68555 127.254 6.68555C128.509 6.68555 129.641 6.97429 130.584 7.54984C131.527 8.12539 132.255 8.93771 132.769 9.98487C133.281 11.032 133.539 12.289 133.539 13.7558V22.5855C133.539 22.7953 133.466 22.9724 133.319 23.1187C133.173 23.2649 132.994 23.3381 132.784 23.3381H130.02C129.81 23.3381 129.633 23.2649 129.485 23.1187C129.339 22.9724 129.266 22.7933 129.266 22.5855V13.9445C129.266 12.7298 128.967 11.777 128.37 11.0859C127.774 10.3949 126.909 10.0484 125.778 10.0484C124.646 10.0484 123.818 10.3949 123.169 11.0859C122.519 11.777 122.195 12.7298 122.195 13.9445V22.5855C122.195 22.7953 122.122 22.9724 121.976 23.1187C121.83 23.2649 121.651 23.3381 121.443 23.3381H118.678Z" fill="#443087"/>
<path d="M140.196 23.3374C139.107 23.3374 138.123 23.1218 137.243 22.6925C136.364 22.2633 135.667 21.6877 135.155 20.9639C134.641 20.2421 134.385 19.4298 134.385 18.5289C134.385 17.0621 134.976 15.8956 136.16 15.0255C137.343 14.1574 138.908 13.5761 140.856 13.2816L145.161 12.654V11.9938C145.161 11.1141 144.941 10.4346 144.5 9.95143C144.059 9.4702 143.307 9.22958 142.238 9.22958C141.484 9.22958 140.872 9.38165 140.4 9.68579C139.929 9.98993 139.578 10.3922 139.347 10.8946C139.18 11.168 138.939 11.3027 138.625 11.3027H136.144C135.913 11.3027 135.74 11.2392 135.626 11.1141C135.513 10.989 135.453 10.8215 135.453 10.6117C135.474 10.2767 135.611 9.86866 135.861 9.3855C136.113 8.90427 136.51 8.43844 137.055 7.988C137.599 7.53757 138.3 7.15451 139.161 6.84075C140.019 6.52698 141.057 6.36914 142.271 6.36914C143.592 6.36914 144.706 6.53083 145.617 6.85615C146.527 7.18146 147.255 7.61649 147.8 8.15932C148.344 8.70408 148.743 9.34315 148.993 10.0766C149.245 10.8099 149.37 11.5838 149.37 12.4019V22.2671C149.37 22.4769 149.297 22.654 149.151 22.8003C149.005 22.9466 148.826 23.0198 148.618 23.0198H146.073C145.842 23.0198 145.659 22.9466 145.522 22.8003C145.386 22.654 145.318 22.475 145.318 22.2671V21.0409C145.045 21.4394 144.679 21.8109 144.219 22.1555C143.759 22.5 143.199 22.783 142.539 23.0044C141.879 23.2257 141.099 23.3335 140.198 23.3335L140.196 23.3374ZM141.264 20.3518C141.998 20.3518 142.662 20.194 143.261 19.8802C143.859 19.5664 144.329 19.0794 144.675 18.4192C145.02 17.7589 145.193 16.9274 145.193 15.9206V15.2604L142.052 15.7628C140.816 15.9514 139.894 16.2556 139.288 16.6733C138.679 17.0929 138.377 17.6049 138.377 18.2132C138.377 18.6733 138.518 19.066 138.801 19.3913C139.084 19.7166 139.445 19.9572 139.884 20.1131C140.325 20.271 140.785 20.348 141.266 20.348L141.264 20.3518Z" fill="#443087"/>
<path d="M2.95285 23.3357C2.16363 23.3357 1.42253 23.0277 0.864295 22.4714C0.306064 21.9151 0 21.1721 0 20.3828C0 19.5936 0.307989 18.8525 0.86622 18.2943L14.0636 5.09507C14.5987 4.55994 15.359 4.25195 16.1521 4.25195C16.9452 4.25195 17.7055 4.55802 18.2407 5.09315L31.4419 18.2924C32.0001 18.8506 32.3081 19.5917 32.3081 20.3809C32.3081 21.1701 32.0001 21.9112 31.4419 22.4695C30.8836 23.0277 30.1425 23.3338 29.3533 23.3338C28.5641 23.3338 27.823 23.0258 27.2648 22.4695L16.1521 11.3588L5.0414 22.4695C4.4851 23.0277 3.74207 23.3338 2.95285 23.3338V23.3357Z" fill="#443087"/>
<path d="M29.3518 22.3737C28.8417 22.3737 28.3335 22.1793 27.9447 21.7904L16.1506 9.99832L4.3604 21.7904C3.58465 22.5681 2.32382 22.5681 1.54615 21.7904C0.768472 21.0128 0.768472 19.7539 1.54615 18.9762L14.7435 5.77695C15.4904 5.03008 16.8128 5.03008 17.5577 5.77695L30.7589 18.9762C31.5366 19.7539 31.5366 21.0128 30.7589 21.7904C30.3701 22.1793 29.86 22.3737 29.3518 22.3737Z" fill="#443087"/>
<path d="M48.8071 24C47.8407 24 46.9322 23.6246 46.2507 22.9413L32.0389 8.73147L17.8329 22.9413C17.1496 23.6246 16.241 24 15.2747 24C14.3084 24 13.4017 23.6246 12.7184 22.9413C11.3074 21.5303 11.3074 19.2358 12.7184 17.8268L29.4807 1.05871C30.1641 0.375361 31.0726 0 32.0389 0C33.0053 0 33.9138 0.375361 34.5953 1.05871L51.3634 17.8268C52.0467 18.5101 52.4221 19.4167 52.4221 20.3831C52.4221 21.3494 52.0448 22.2579 51.3634 22.9413C50.6819 23.6246 49.7734 24 48.8071 24Z" fill="#49BDD8"/>
<path d="M48.8065 23.038C48.127 23.038 47.4474 22.7781 46.9296 22.2603L32.0384 7.37098L17.1509 22.2603C16.1134 23.2978 14.4348 23.2959 13.3973 22.2603C12.3598 21.2228 12.3598 19.5442 13.3973 18.5067L30.1615 1.74056C30.6601 1.24201 31.3338 0.962891 32.0384 0.962891C32.7429 0.962891 33.4166 1.24201 33.9152 1.74056L50.6833 18.5086C51.7208 19.5442 51.7208 21.2247 50.6833 22.2622C50.1655 22.78 49.486 23.0399 48.8065 23.0399V23.038Z" fill="#49BDD8"/>
</g>
<defs>
<clipPath id="clip0_2473_649">
<rect width="149.371" height="24" fill="white"/>
</clipPath>
</defs>
</svg>
